<svg xmlns="http://www.w3.org/2000/svg" version="1.1" xmlns:xlink="http://www.w3.org/1999/xlink" xmlns:svgjs="http://svgjs.dev/svgjs" width="2000" height="1929" viewBox="0 0 2000 1929"><g transform="matrix(1,0,0,1,1.70964125560522,0.7809716599190324)"><svg viewBox="0 0 256 247" data-background-color="#ffffff" preserveAspectRatio="xMidYMid meet" height="1929" width="2000" xmlns="http://www.w3.org/2000/svg" xmlns:xlink="http://www.w3.org/1999/xlink"><g id="tight-bounds" transform="matrix(1,0,0,1,-0.21883408071747112,-0.09999999999999432)"><svg viewBox="0 0 256.43766816143494 247.2" height="247.2" width="256.43766816143494"><g><svg viewBox="0 0 256.43766816143494 247.2" height="247.2" width="256.43766816143494"><g><svg viewBox="0 0 256.43766816143494 247.2" height="247.2" width="256.43766816143494"><g id="textblocktransform"><svg viewBox="0 0 256.43766816143494 247.2" height="247.2" width="256.43766816143494" id="textblock"><g><svg viewBox="0 0 256.43766816143494 247.2" height="247.2" width="256.43766816143494"><g transform="matrix(1,0,0,1,0,0)"><svg width="256.43766816143494" viewBox="0.35 -33 34.699999999999996 33.45" height="247.2" data-palette-color="#915eff"><path d="M17.05 0.45L17.05 0.45Q13.85-8.2 10.6-15.63 7.35-23.05 4.25-30.05L4.25-30.05 0.35-31.05 1-33Q2.55-32.95 4.48-32.9 6.4-32.85 7.95-32.85L7.95-32.85Q8.85-32.85 10.3-32.88 11.75-32.9 13.2-32.93 14.65-32.95 15.55-33L15.55-33 16.25-31.05 12.4-30.05Q14-25.1 16.05-19.93 18.1-14.75 21.05-8.95L21.05-8.95Q21.15-8.55 20.93-7.5 20.7-6.45 20.3-5.1 19.9-3.75 19.38-2.48 18.85-1.2 18.25-0.38 17.65 0.45 17.05 0.45ZM19.75 0.45L17.05 0.45Q17.4-0.45 17.57-1.15 17.75-1.85 17.95-2.83 18.15-3.8 18.55-5.6L18.55-5.6Q19.95-8.75 21.45-12.9 22.95-17.05 24.3-21.53 25.65-26 26.5-30.05L26.5-30.05 22.75-31.05 23.4-33Q26.65-32.85 29.3-32.85L29.3-32.85Q30.6-32.85 31.83-32.9 33.05-32.95 34.4-33L34.4-33 35.05-31.05 31.5-30.05Q29.45-25.3 27.38-20.08 25.3-14.85 23.38-9.63 21.45-4.4 19.75 0.45L19.75 0.45Z" opacity="1" transform="matrix(1,0,0,1,0,0)" fill="#915eff" class="wordmark-text-0" data-fill-palette-color="primary" id="text-0"></path></svg></g></svg></g></svg></g></svg></g><g></g></svg></g><defs></defs></svg><rect width="256.43766816143494" height="247.2" fill="none" stroke="none" visibility="hidden"></rect></g></svg></g></svg>